<?xml version="1.0" standalone="no"?>
<!DOCTYPE svg PUBLIC "-//W3C//DTD SVG 20010904//EN"
 "http://www.w3.org/TR/2001/REC-SVG-20010904/DTD/svg10.dtd">
<svg version="1.0" xmlns="http://www.w3.org/2000/svg"
 width="1080.000000pt" height="1080.000000pt" viewBox="0 0 1080.000000 1080.000000"
 preserveAspectRatio="xMidYMid meet">

<g transform="translate(0.000000,1080.000000) scale(0.100000,-0.100000)"
fill="#000000" stroke="none">
<path d="M7383 7533 c-8 -3 2 -43 33 -129 24 -69 44 -127 44 -130 0 -2 -6 -4
-13 -4 -38 0 -65 -84 -32 -96 26 -10 62 5 81 33 17 28 17 29 -20 138 -21 60
-41 115 -43 122 -3 7 7 15 21 19 31 7 54 -8 72 -51 l13 -30 1 42 c0 45 -17 70
-53 77 -44 9 -92 13 -104 9z"/>
<path d="M6874 7214 c-78 -92 -96 -119 -88 -132 6 -9 16 -18 24 -20 8 -3 10 0
6 7 -5 7 32 58 89 126 86 103 104 135 75 135 -5 0 -53 -52 -106 -116z"/>
<path d="M7223 7078 c-34 -24 -73 -84 -73 -112 0 -45 95 14 120 74 12 29 8 60
-7 60 -5 0 -23 -10 -40 -22z"/>
<path d="M6453 7053 c-8 -3 2 -43 33 -129 24 -69 44 -127 44 -130 0 -2 -6 -4
-13 -4 -38 0 -65 -84 -32 -96 26 -10 62 5 81 33 17 28 17 29 -20 138 -21 60
-41 115 -43 122 -3 7 7 15 21 19 31 7 54 -8 72 -51 l13 -30 1 42 c0 45 -17 70
-53 77 -44 9 -92 13 -104 9z"/>
<path d="M6845 7030 c10 -11 20 -20 23 -20 3 0 -3 9 -13 20 -10 11 -20 20 -23
20 -3 0 3 -9 13 -20z"/>
<path d="M7025 6838 c-37 -22 -85 -94 -85 -128 0 -36 88 17 115 71 29 56 15
83 -30 57z"/>
<path d="M7170 6618 c0 -5 24 -8 53 -9 28 0 73 -2 100 -5 26 -2 47 1 47 6 0 5
-45 10 -100 12 -55 2 -100 0 -100 -4z"/>
<path d="M6780 6564 c-41 -7 -169 -29 -285 -49 -115 -20 -215 -38 -222 -40 -8
-3 -9 -14 -3 -37 5 -18 11 -53 14 -78 3 -25 8 -56 11 -70 18 -89 85 -493 83
-495 -2 -2 -22 0 -45 4 -93 17 -243 -18 -279 -67 -68 -89 134 -124 284 -49 58
29 65 44 53 119 -6 35 -18 115 -26 178 -9 63 -18 126 -20 140 -2 14 -7 48 -11
75 -3 28 -8 58 -10 68 -2 11 -6 45 -10 77 l-6 59 33 5 c19 3 125 22 235 41
111 20 223 37 250 38 l49 2 37 -205 c65 -358 68 -373 62 -382 -3 -5 -15 -6
-26 -3 -36 12 -153 6 -198 -10 -62 -22 -110 -61 -110 -89 0 -66 185 -74 303
-14 62 31 64 46 33 225 -16 87 -30 169 -32 183 -33 207 -69 390 -78 389 -6 -1
-45 -7 -86 -15z"/>
<path d="M7045 6400 c-7 -11 35 -30 63 -30 25 0 46 16 38 29 -9 14 -93 15
-101 1z"/>
<path d="M7252 6388 c7 -20 52 -30 84 -18 23 9 25 13 14 20 -22 14 -103 13
-98 -2z"/>
<path d="M7173 6183 c-8 -3 2 -43 33 -129 24 -69 44 -127 44 -130 0 -2 -6 -4
-13 -4 -38 0 -65 -84 -32 -96 26 -10 62 5 81 33 17 28 17 29 -20 138 -21 60
-41 115 -43 122 -3 7 7 15 21 19 31 7 54 -8 72 -51 l13 -30 1 42 c0 45 -17 70
-53 77 -44 9 -92 13 -104 9z"/>
<path d="M5808 5568 c-4 -10 -14 -18 -23 -18 -8 0 -15 -5 -15 -10 0 -6 -11
-15 -25 -20 -14 -5 -25 -13 -25 -18 0 -5 -15 -16 -32 -25 -18 -10 -46 -26 -63
-37 -53 -34 -149 -79 -193 -90 -37 -9 -46 -8 -70 8 -45 32 -150 82 -172 82
-11 0 -20 4 -20 9 0 5 -24 12 -52 16 -29 4 -57 10 -62 12 -4 3 -40 7 -80 8
-86 4 -326 -38 -338 -59 -4 -8 -26 -17 -48 -21 -25 -4 -40 -12 -40 -21 0 -8
-8 -14 -18 -14 -10 0 -25 -8 -33 -17 -9 -10 -26 -25 -38 -33 -68 -46 -211
-223 -211 -262 0 -8 -6 -22 -13 -33 -7 -11 -19 -40 -26 -65 -7 -25 -18 -54
-23 -64 -6 -11 -11 -49 -13 -85 -1 -36 -5 -73 -9 -81 -8 -20 41 -274 54 -278
14 -5 12 -48 -2 -59 -13 -10 -185 -27 -243 -25 -16 1 -50 1 -75 0 -25 0 -54 0
-65 1 -11 1 -44 2 -72 1 -30 0 -53 4 -53 10 0 6 -15 8 -40 4 -27 -4 -40 -3
-40 5 0 8 -13 9 -40 5 -28 -5 -40 -3 -40 6 0 8 -10 9 -29 5 -16 -3 -38 -2 -48
4 -10 6 -39 15 -65 21 -112 24 -144 33 -152 41 -6 5 -20 9 -32 9 -13 0 -26 5
-29 10 -3 6 -17 10 -31 10 -13 0 -24 5 -24 10 0 6 -9 10 -21 10 -12 0 -35 6
-52 14 -18 8 -47 20 -64 27 -18 8 -33 17 -33 20 0 4 -14 9 -31 13 -17 3 -44
15 -61 27 -16 12 -57 35 -91 51 -55 27 -144 82 -157 98 -3 3 -30 23 -60 44
-30 22 -59 45 -63 52 -12 20 -27 17 -27 -5 0 -11 -4 -22 -10 -26 -5 -3 -9 -18
-10 -33 0 -15 -2 -54 -5 -87 -8 -89 -6 -107 14 -214 17 -84 40 -149 72 -201 5
-8 15 -26 21 -40 7 -14 18 -29 25 -33 7 -4 13 -15 13 -23 0 -8 7 -17 15 -20 8
-4 15 -11 15 -16 0 -23 183 -178 210 -178 5 0 10 -4 10 -10 0 -5 11 -10 24
-10 24 0 40 -28 27 -47 -8 -13 -180 -23 -187 -12 -3 5 -20 7 -39 3 -19 -3 -35
-1 -39 5 -7 11 -48 15 -58 6 -7 -7 23 -128 33 -135 4 -3 14 -21 23 -40 31 -65
49 -95 63 -103 7 -4 13 -12 13 -17 0 -28 224 -210 260 -210 5 0 10 -4 10 -10
0 -5 10 -10 23 -10 13 0 32 -7 43 -15 10 -8 29 -15 41 -15 12 0 24 -4 28 -10
3 -5 18 -9 33 -10 130 -3 152 -9 152 -40 0 -28 -21 -36 -170 -64 -73 -14 -135
-28 -137 -30 -6 -6 93 -134 126 -164 55 -50 72 -62 81 -62 6 0 10 -4 10 -9 0
-5 8 -11 18 -14 9 -4 35 -16 58 -29 103 -59 230 -88 379 -88 46 0 90 -3 99 -6
23 -9 20 -41 -4 -49 -11 -3 -20 -11 -20 -16 0 -5 -26 -34 -57 -64 -87 -83 -89
-85 -99 -85 -5 0 -17 -8 -26 -17 -25 -28 -61 -53 -75 -53 -7 0 -13 -5 -13 -11
0 -5 -13 -15 -30 -20 -16 -6 -30 -15 -30 -19 0 -5 -10 -12 -22 -16 -13 -4 -34
-15 -47 -25 -13 -11 -33 -19 -45 -19 -12 0 -29 -9 -39 -20 -9 -11 -24 -20 -33
-20 -10 0 -42 -12 -73 -27 -33 -15 -120 -39 -208 -56 -84 -17 -153 -34 -153
-39 0 -4 9 -8 20 -8 11 0 52 -11 92 -24 40 -14 91 -28 113 -32 22 -3 45 -10
50 -14 6 -4 37 -11 70 -15 33 -4 64 -10 69 -13 9 -5 39 -8 211 -17 108 -6 88
-6 216 -1 120 4 555 81 579 102 9 7 43 20 75 28 33 8 78 24 100 35 21 12 49
21 61 21 12 0 24 7 27 14 3 8 22 18 41 22 20 3 45 15 57 25 12 10 29 19 38 19
9 0 24 9 34 20 9 11 26 20 36 20 11 0 24 6 28 12 4 7 15 18 24 23 10 6 38 25
63 43 26 17 50 32 54 32 4 0 15 8 24 18 35 35 55 52 64 52 5 1 20 14 34 30 13
17 29 30 35 30 17 0 215 212 262 280 9 14 20 27 23 30 16 12 151 222 171 266
13 27 27 51 31 52 4 2 8 10 8 18 0 8 5 14 10 14 6 0 10 8 10 18 0 15 10 39 56
135 8 16 14 35 14 43 0 8 4 22 10 32 16 29 58 164 65 212 4 25 11 50 16 56 10
12 58 380 59 445 0 24 1 55 1 69 2 96 -13 282 -30 370 -26 132 -26 142 2 167
26 24 57 61 57 69 0 2 9 15 20 26 21 22 111 157 145 215 23 39 16 50 -18 31
-70 -37 -155 -77 -177 -83 -14 -4 -32 -13 -40 -21 -22 -19 -96 -29 -105 -14
-10 16 14 58 37 66 10 3 18 11 18 19 0 7 4 15 8 17 12 4 108 149 115 173 3 11
15 46 27 77 12 32 20 66 18 75 -3 17 -4 17 -10 1z"/>
</g>
</svg>
